<svg xmlns="http://www.w3.org/2000/svg" viewBox="0 0 618.8 287.64"><defs><style>.a{fill:#fcd1a5;}.a,.b,.d,.e{stroke:#3d4752;stroke-miterlimit:10;}.b{fill:none;}.c{fill:#3d4752;}.d{fill:#d6d6d6;}.e{fill:#fff;}</style></defs><title>current-state-value-stream-map</title><rect class="a" x="228.62" y="0.5" width="83.25" height="54" rx="2.25" ry="2.25"/><line class="b" x1="228.62" y1="22.1" x2="311.87" y2="22.1"/><path class="c" d="M238.79,9.73c0-1-1.15-.92-2.19-0.92v1.85c1,0,2.19.09,2.19-.94m0.81,0c0,1.51-1.39,1.69-3,1.62v2.52h-0.8V8.13h1.75C238.74,8.15,239.6,8.54,239.6,9.73Z"/><path class="c" d="M240.21,13.86c0-1.28,0-2.61,0-3.84h0.72c0,0.16,0,.48,0,0.65h0a1.3,1.3,0,0,1,1.47-.72l0,0.7A1.1,1.1,0,0,0,241,11.85v2h-0.76"/><path class="c" d="M244.81,13.33a1.24,1.24,0,0,0,1.28-1.39,1.28,1.28,0,1,0-2.56,0,1.24,1.24,0,0,0,1.28,1.39m0-3.41a1.9,1.9,0,0,1,2.07,2,2.07,2.07,0,0,1-4.14,0A1.89,1.89,0,0,1,244.81,9.92Z"/><path class="c" d="M249.74,10.55a1.23,1.23,0,0,0-1.27,1.39,1.23,1.23,0,0,0,1.27,1.39,1.25,1.25,0,0,0,1.3-1.39,1.26,1.26,0,0,0-1.3-1.39m-0.14-.63a1.7,1.7,0,0,1,1.39.68V7.74h0.76v6.12H251a3.73,3.73,0,0,0,0-.61,1.6,1.6,0,0,1-1.39.71,1.84,1.84,0,0,1-1.94-2A1.86,1.86,0,0,1,249.6,9.92Z"/><path class="c" d="M256.47,10c0,1.28,0,2.61,0,3.84h-0.72c0-.16,0-0.49,0-0.63a1.41,1.41,0,0,1-1.26.74A1.36,1.36,0,0,1,253,12.41V10h0.76v2.12c0,0.68.19,1.18,0.87,1.18a1.11,1.11,0,0,0,1-1.26V10h0.76"/><path class="c" d="M257.54,11.95a1.88,1.88,0,0,1,2-2,1.82,1.82,0,0,1,1.44.63l-0.55.45a1.05,1.05,0,0,0-.88-0.44,1.24,1.24,0,0,0-1.26,1.39,1.24,1.24,0,0,0,1.26,1.39,1.1,1.1,0,0,0,.92-0.42L261,13.37a1.77,1.77,0,0,1-1.43.6,1.9,1.9,0,0,1-2.07-2"/><path class="c" d="M263,13.93a1,1,0,0,1-1.12-1.2V10.65h-0.74V10h0.74V8.92h0.75V10h1v0.62h-1v2c0,0.44.13,0.64,0.54,0.65a1.09,1.09,0,0,0,.45-0.1l0,0.62a1.94,1.94,0,0,1-.65.11"/><path class="c" d="M264.85,8.15a0.5,0.5,0,0,1,.51.49,0.51,0.51,0,1,1-.51-0.49m0.38,5.72h-0.76V10h0.76v3.84Z"/><path class="c" d="M268.37,13.33a1.24,1.24,0,0,0,1.28-1.39,1.28,1.28,0,1,0-2.56,0,1.24,1.24,0,0,0,1.28,1.39m0-3.41a1.9,1.9,0,0,1,2.07,2,2.07,2.07,0,0,1-4.14,0A1.89,1.89,0,0,1,268.37,9.92Z"/><path class="c" d="M271.5,13.86c0-1.28,0-2.61,0-3.84h0.72c0,0.16,0,.45,0,0.63h0a1.34,1.34,0,0,1,1.25-.74,1.36,1.36,0,0,1,1.43,1.56v2.38h-0.76V11.73c0-.68-0.19-1.17-0.87-1.17a1.11,1.11,0,0,0-1,1.26v2H271.5"/><path class="c" d="M281,13.3a1.78,1.78,0,0,0,1.54-.76L283.2,13A2.57,2.57,0,0,1,281,14a2.87,2.87,0,0,1-2.79-1.8,3.44,3.44,0,0,1,0-2.45A3,3,0,0,1,281.63,8a2.23,2.23,0,0,1,1.47.83l-0.63.49A1.73,1.73,0,0,0,281,8.69a2.1,2.1,0,0,0-2.18,2.3A2.06,2.06,0,0,0,281,13.3"/><path class="c" d="M285.69,13.33A1.24,1.24,0,0,0,287,11.94a1.28,1.28,0,1,0-2.56,0,1.24,1.24,0,0,0,1.28,1.39m0-3.41a1.9,1.9,0,0,1,2.07,2,2.07,2.07,0,0,1-4.14,0A1.89,1.89,0,0,1,285.69,9.92Z"/><path class="c" d="M288.82,13.86c0-1.28,0-2.61,0-3.84h0.72c0,0.16,0,.45,0,0.63h0a1.34,1.34,0,0,1,1.25-.74,1.36,1.36,0,0,1,1.43,1.56v2.38h-0.76V11.73c0-.68-0.19-1.17-0.87-1.17a1.11,1.11,0,0,0-1,1.26v2h-0.76"/><path class="c" d="M294.76,13.93a1,1,0,0,1-1.12-1.2V10.65H292.9V10h0.74V8.92h0.75V10h1v0.62h-1v2c0,0.44.13,0.64,0.54,0.65a1.09,1.09,0,0,0,.45-0.1l0,0.62a1.94,1.94,0,0,1-.65.11"/><path class="c" d="M296.2,13.86c0-1.28,0-2.61,0-3.84h0.72c0,0.16,0,.48,0,0.65h0a1.3,1.3,0,0,1,1.47-.72l0,0.7A1.1,1.1,0,0,0,297,11.85v2H296.2"/><path class="c" d="M300.8,13.33a1.24,1.24,0,0,0,1.28-1.39,1.28,1.28,0,1,0-2.56,0,1.24,1.24,0,0,0,1.28,1.39m0-3.41a1.9,1.9,0,0,1,2.07,2,2.07,2.07,0,0,1-4.14,0A1.89,1.89,0,0,1,300.8,9.92Z"/><polyline class="c" points="304.7 13.87 303.94 13.87 303.94 10.8 303.94 7.74 304.7 7.74 304.7 10.8 304.7 13.87"/><path class="c" d="M255.12,36.72c0-1-1.21-.91-2.27-0.91v1.83c1.06,0,2.27.11,2.27-.92m0.81,0a1.53,1.53,0,0,1-1.39,1.51l1.6,2.63h-1l-1.46-2.55h-0.86v2.55H252V35.13C253.87,35.12,255.93,34.88,255.93,36.72Z"/><path class="c" d="M258.62,36.92c1.3,0,1.9.87,1.84,2.25h-3a1.2,1.2,0,0,0,1.25,1.17,1.28,1.28,0,0,0,1.12-.58l0.53,0.43a1.92,1.92,0,0,1-1.65.79,2,2,0,0,1,0-4m1.08,1.68a1.07,1.07,0,0,0-1.54-1,1.12,1.12,0,0,0-.75,1h2.28Z"/><path class="c" d="M261.39,38.55c-0.5-1.26.95-2,2.14-1.47a1.3,1.3,0,0,1,.6.47L263.6,38a1,1,0,0,0-.89-0.48,0.58,0.58,0,0,0-.71.5c0,0.59.92,0.51,1.39,0.73a1.08,1.08,0,0,1,.78,1c0.06,1.56-2.45,1.51-3.08.55l0.54-.46a1.24,1.24,0,0,0,1,.53,0.62,0.62,0,0,0,.76-0.56c0-.73-1.27-0.51-1.76-0.95a0.84,0.84,0,0,1-.26-0.3"/><path class="c" d="M266.93,40.33a1.39,1.39,0,1,0-1.28-1.39,1.24,1.24,0,0,0,1.28,1.39m0-3.41a2,2,0,1,1-2.07,2A1.9,1.9,0,0,1,266.93,36.92Z"/><path class="c" d="M273.45,37c0,1.28,0,2.61,0,3.84h-0.72c0-.16,0-0.49,0-0.63a1.41,1.41,0,0,1-1.26.74A1.36,1.36,0,0,1,270,39.41V37h0.76v2.12c0,0.68.19,1.18,0.87,1.18a1.11,1.11,0,0,0,1-1.26V37h0.76"/><path class="c" d="M274.78,40.86c0-1.28,0-2.61,0-3.84h0.72c0,0.16,0,.48,0,0.65h0A1.3,1.3,0,0,1,277,37l0,0.7a1.1,1.1,0,0,0-1.43,1.19v2h-0.76"/><path class="c" d="M277.31,38.95a1.88,1.88,0,0,1,2-2,1.82,1.82,0,0,1,1.44.63l-0.55.45a1.05,1.05,0,0,0-.88-0.44,1.39,1.39,0,0,0,0,2.77,1.1,1.1,0,0,0,.92-0.42l0.51,0.46a1.77,1.77,0,0,1-1.43.6,1.9,1.9,0,0,1-2.07-2"/><path class="c" d="M283.3,36.92c1.3,0,1.9.87,1.84,2.25h-3a1.2,1.2,0,0,0,1.25,1.17,1.28,1.28,0,0,0,1.12-.58L285,40.18a1.92,1.92,0,0,1-1.65.79,2,2,0,0,1,0-4m1.08,1.68a1.07,1.07,0,0,0-1.54-1,1.12,1.12,0,0,0-.75,1h2.28Z"/><path class="c" d="M286.07,38.55c-0.5-1.26.95-2,2.14-1.47a1.3,1.3,0,0,1,.6.47l-0.53.45a1,1,0,0,0-.89-0.48,0.58,0.58,0,0,0-.71.5c0,0.59.92,0.51,1.39,0.73a1.08,1.08,0,0,1,.78,1c0.06,1.56-2.45,1.51-3.08.55l0.54-.46a1.24,1.24,0,0,0,1,.53,0.62,0.62,0,0,0,.76-0.56c0-.73-1.27-0.51-1.76-0.95a0.84,0.84,0,0,1-.26-0.3"/><path class="b" d="M228.62,26.6l-85.49-2c-1.4,0-1.4.23-.1,0.58L154.24,28c1.3,0.36,1.3.59-.1,0.59L79.56,26.78"/><polygon class="c" points="72.5 26.6 82.55 22.78 80.09 26.79 82.34 30.91 72.5 26.6"/><path class="c" d="M138.67,34c0.43,1.51.83,3.07,1.28,4.57L141.3,34h0.88c0.45,1.51.87,3.07,1.35,4.57L144.8,34h0.85L144,39.77h-0.83c-0.47-1.53-.92-3.09-1.41-4.61l-1.39,4.61h-0.83L137.81,34h0.87"/><path class="c" d="M147.83,35.83c1.3,0,1.9.87,1.84,2.25h-3a1.2,1.2,0,0,0,1.25,1.17,1.28,1.28,0,0,0,1.12-.58l0.53,0.43a1.92,1.92,0,0,1-1.65.79,2,2,0,0,1,0-4m1.08,1.68a1.07,1.07,0,0,0-1.54-1,1.12,1.12,0,0,0-.75,1h2.28Z"/><path class="c" d="M152.47,35.83c1.3,0,1.9.87,1.84,2.25h-3a1.2,1.2,0,0,0,1.25,1.17,1.28,1.28,0,0,0,1.12-.58l0.53,0.43a1.92,1.92,0,0,1-1.65.79,2,2,0,0,1,0-4m1.08,1.68a1.07,1.07,0,0,0-1.54-1,1.12,1.12,0,0,0-.75,1h2.28Z"/><polyline class="c" points="156.15 37.6 156.18 37.6 157.79 35.93 158.81 35.93 157.01 37.67 158.96 39.77 157.91 39.77 156.18 37.78 156.15 37.78 156.15 38.77 156.15 39.77 155.39 39.77 155.39 36.71 155.39 33.65 156.15 33.65 156.15 35.62 156.15 37.6"/><polyline class="c" points="160.42 39.77 159.66 39.77 159.66 36.71 159.66 33.65 160.42 33.65 160.42 36.71 160.42 39.77"/><path class="c" d="M162,35.93c0.41,1,.78,2,1.21,3l1.06-3h0.81l-1.86,4.75a1.4,1.4,0,0,1-1.83,1l0.07-.67a0.79,0.79,0,0,0,.83-0.1,4.73,4.73,0,0,0,.51-1.12l-1.64-3.84H162"/><path class="c" d="M169.67,39.24a1.39,1.39,0,1,0-1.28-1.39,1.24,1.24,0,0,0,1.28,1.39m0-3.41a2,2,0,1,1-2.07,2A1.9,1.9,0,0,1,169.67,35.83Z"/><path class="c" d="M172.8,39.77c0-1.28,0-2.61,0-3.84h0.72c0,0.16,0,.48,0,0.65h0a1.3,1.3,0,0,1,1.47-.72l0,0.7a1.1,1.1,0,0,0-1.43,1.19v2H172.8"/><path class="c" d="M177.39,36.46a1.39,1.39,0,0,0,0,2.78,1.39,1.39,0,0,0,0-2.78m-0.14-.63a1.7,1.7,0,0,1,1.39.68V33.65h0.76v6.12h-0.74a3.73,3.73,0,0,0,0-.61,1.6,1.6,0,0,1-1.39.71,1.84,1.84,0,0,1-1.94-2A1.86,1.86,0,0,1,177.25,35.83Z"/><path class="c" d="M182.46,35.83c1.3,0,1.9.87,1.84,2.25h-3a1.2,1.2,0,0,0,1.25,1.17,1.28,1.28,0,0,0,1.12-.58l0.53,0.43a1.92,1.92,0,0,1-1.65.79,2,2,0,0,1,0-4m1.08,1.68a1.07,1.07,0,0,0-1.54-1,1.12,1.12,0,0,0-.75,1h2.28Z"/><path class="c" d="M185.37,39.77c0-1.28,0-2.61,0-3.84h0.72c0,0.16,0,.48,0,0.65h0a1.3,1.3,0,0,1,1.47-.72l0,0.7a1.1,1.1,0,0,0-1.43,1.19v2h-0.76"/><path class="c" d="M188.16,37.45c-0.5-1.26.95-2,2.14-1.47a1.3,1.3,0,0,1,.6.47l-0.53.45a1,1,0,0,0-.89-0.48,0.58,0.58,0,0,0-.71.5c0,0.59.92,0.51,1.39,0.73a1.08,1.08,0,0,1,.78,1c0.06,1.56-2.45,1.51-3.08.55l0.54-.46a1.24,1.24,0,0,0,1,.53,0.62,0.62,0,0,0,.76-0.56c0-.73-1.27-0.51-1.76-0.95a0.84,0.84,0,0,1-.26-0.3"/><path class="a" d="M0.5,18.95a4.63,4.63,0,0,1,1.85-3.51L22.42,1.76c1-.67,1.84-0.27,1.84,1v11.7c0,1.26.81,1.67,1.85,1L46.18,1.76c1-.67,1.85-0.27,1.85,1v11.7c0,1.26.85,1.71,1.89,1L70.61,1.76c1-.72,1.89-0.27,1.89,1v49.5a2.23,2.23,0,0,1-2.25,2.25H2.75A2.23,2.23,0,0,1,.5,52.25V18.95Z"/><path class="c" d="M19.5,33.92c0-1.43,1.6-1.93,2.91-1.46a1.65,1.65,0,0,1,.7.48l-0.57.55A1.38,1.38,0,0,0,21.43,33a1,1,0,0,0-1,1.32c0.45,0.66,1.61.61,2.21,1.12a1.44,1.44,0,0,1,.55,1.17c0,1.54-1.67,2.07-3,1.53a2,2,0,0,1-.83-0.62l0.62-.53a1.6,1.6,0,0,0,1.28.67,1,1,0,0,0,1-1.42C21.84,35.49,20.56,35.6,20,35a1.44,1.44,0,0,1-.47-1.12"/><path class="c" d="M27.65,34.33c0,1.28,0,2.61,0,3.84H27c0-.16,0-0.49,0-0.63a1.41,1.41,0,0,1-1.26.74,1.36,1.36,0,0,1-1.43-1.56V34.33H25v2.12c0,0.68.19,1.18,0.87,1.18a1.11,1.11,0,0,0,1-1.26v-2h0.76"/><path class="c" d="M31,37.63a1.39,1.39,0,0,0,0-2.78,1.39,1.39,0,0,0,0,2.78m0.13,0.64a1.59,1.59,0,0,1-1.35-.68h0v2.52H29V34.33h0.75v0.6h0a1.54,1.54,0,0,1,1.39-.7,1.85,1.85,0,0,1,1.92,2A1.84,1.84,0,0,1,31.11,38.27Z"/><path class="c" d="M36.12,37.63a1.39,1.39,0,0,0,0-2.78,1.39,1.39,0,0,0,0,2.78m0.13,0.64a1.59,1.59,0,0,1-1.35-.68h0v2.52H34.11V34.33h0.75v0.6h0a1.54,1.54,0,0,1,1.39-.7,1.85,1.85,0,0,1,1.92,2A1.84,1.84,0,0,1,36.25,38.27Z"/><polyline class="c" points="40.02 38.16 39.26 38.16 39.26 35.1 39.26 32.04 40.02 32.04 40.02 35.1 40.02 38.16"/><path class="c" d="M41.74,32.45a0.5,0.5,0,0,1,.51.49,0.51,0.51,0,1,1-.51-0.49m0.38,5.72H41.36V34.33h0.76v3.84Z"/><path class="c" d="M45.18,34.22c1.3,0,1.9.87,1.84,2.25H44a1.2,1.2,0,0,0,1.25,1.17,1.28,1.28,0,0,0,1.12-.58l0.53,0.43a1.92,1.92,0,0,1-1.65.79,2,2,0,0,1,0-4m1.08,1.68a1.07,1.07,0,0,0-1.54-1,1.12,1.12,0,0,0-.75,1h2.28Z"/><path class="c" d="M48.09,38.16c0-1.28,0-2.61,0-3.84h0.72c0,0.16,0,.48,0,0.65h0a1.3,1.3,0,0,1,1.47-.72l0,0.7a1.1,1.1,0,0,0-1.43,1.19v2H48.09"/><path class="c" d="M50.88,35.85c-0.5-1.26.95-2,2.14-1.47a1.3,1.3,0,0,1,.6.47l-0.53.45a1,1,0,0,0-.89-0.48,0.58,0.58,0,0,0-.71.5c0,0.59.92,0.51,1.39,0.73a1.08,1.08,0,0,1,.78,1c0.06,1.56-2.45,1.51-3.08.55l0.54-.46a1.24,1.24,0,0,0,1,.53,0.62,0.62,0,0,0,.76-0.56c0-.73-1.27-0.51-1.76-0.95a0.84,0.84,0,0,1-.26-0.3"/><line class="b" x1="36.5" y1="54.5" x2="36.5" y2="175.51"/><polygon class="c" points="36.5 182.57 32.44 172.62 36.5 174.98 40.56 172.62 36.5 182.57"/><path class="c" d="M36.95,54.5h0Z"/><rect class="d" x="0.5" y="81.5" width="47.21" height="37.49" rx="2.25" ry="2.25"/><path class="d" d="M79.25,104H77a3.7,3.7,0,0,1-3.19-2.07L68.9,91.09A3.73,3.73,0,0,0,65.7,89H50a2.26,2.26,0,0,0-2.25,2.25V119H79.25a2.23,2.23,0,0,0,2.25-2.25V106.25A2.23,2.23,0,0,0,79.25,104Zm-11.84,0H56.79a2.23,2.23,0,0,1-2.25-2.25v-9h7.88a3.72,3.72,0,0,1,3.15,2.07l3.19,7.11A1.36,1.36,0,0,1,67.41,104Z"/><path class="e" d="M22.78,119c0,4.14-3,7.51-6.71,7.51S9.23,123.12,9.23,119s3.1-7.47,6.84-7.47S22.78,114.84,22.78,119Z"/><path class="e" d="M68,119c0,4.14-3,7.51-6.71,7.51s-6.71-3.37-6.71-7.51,3-7.47,6.71-7.47S68,114.84,68,119Z"/><path class="c" d="M12,96.33c0.43,1.51.83,3.07,1.28,4.57l1.34-4.57h0.88c0.45,1.51.87,3.07,1.35,4.57l1.26-4.57H19l-1.68,5.73H16.43C16,100.53,15.52,99,15,97.46l-1.39,4.61H12.8l-1.68-5.73H12Z"/><path class="c" d="M21.13,98.12c1.3,0,1.9.87,1.84,2.25h-3a1.2,1.2,0,0,0,1.25,1.17,1.28,1.28,0,0,0,1.12-.58l0.53,0.43a1.92,1.92,0,0,1-1.65.79,2,2,0,0,1,0-4h0Zm1.08,1.68a1.07,1.07,0,0,0-1.54-1,1.12,1.12,0,0,0-.75,1h2.28Z"/><path class="c" d="M25.77,98.12c1.3,0,1.9.87,1.84,2.25h-3a1.2,1.2,0,0,0,1.25,1.17,1.28,1.28,0,0,0,1.12-.58l0.53,0.43a1.92,1.92,0,0,1-1.65.79,2,2,0,0,1,0-4h0Zm1.08,1.68a1.07,1.07,0,0,0-1.54-1,1.12,1.12,0,0,0-.75,1h2.28Z"/><polygon class="c" points="29.46 99.89 29.48 99.89 31.09 98.23 32.11 98.23 30.32 99.97 32.27 102.06 31.21 102.06 29.48 100.07 29.46 100.07 29.46 101.07 29.46 102.06 28.7 102.06 28.7 99 28.7 95.94 29.46 95.94 29.46 97.92 29.46 99.89 29.46 99.89"/><polygon class="c" points="33.73 102.06 32.97 102.06 32.97 99 32.97 95.94 33.73 95.94 33.73 99 33.73 102.06 33.73 102.06"/><path class="c" d="M35.32,98.23c0.41,1,.78,2,1.21,3l1.06-3H38.4L36.54,103a1.4,1.4,0,0,1-1.83,1l0.07-.67a0.79,0.79,0,0,0,.83-0.1,4.73,4.73,0,0,0,.51-1.12l-1.64-3.84h0.85Z"/><rect class="a" x="67.27" y="162.5" width="72" height="54" rx="2.25" ry="2.25"/><line class="b" x1="67.27" y1="180.5" x2="139.27" y2="180.5"/><path class="b" d="M78.52,209.84a3.87,3.87,0,0,1-3.69,4.23,4.14,4.14,0,0,1-4-4.05v-0.09"/><path class="b" d="M72.22,210.47a2.33,2.33,0,0,1,2.34-2.39,2.5,2.5,0,0,1,2.65,2.21,2.27,2.27,0,0,1-2.29,2.39A2.55,2.55,0,0,1,72.22,210.47Z"/><path class="c" d="M75.47,168.33c0.58,1.47,1.13,3,1.73,4.41l1.69-4.41h1.25v5.73h-0.8c0-1.6,0-3.23,0-4.8l-1.9,4.8H76.91c-0.64-1.6-1.25-3.22-1.91-4.8v4.8H74.22v-5.73h1.25"/><path class="c" d="M81.88,168.35a0.5,0.5,0,0,1,.51.49,0.51,0.51,0,1,1-.51-0.49m0.38,5.72H81.5v-3.84h0.76v3.84Z"/><polyline class="c" points="84.53 172.05 83.13 170.23 84.07 170.23 85.01 171.55 85.96 170.23 86.85 170.23 85.47 172.04 87.01 174.06 86.06 174.06 85 172.57 83.91 174.06 82.99 174.06"/><path class="c" d="M88.12,168.35a0.5,0.5,0,0,1,.51.49,0.51,0.51,0,1,1-.51-0.49m0.38,5.72H87.74v-3.84H88.5v3.84Z"/><path class="c" d="M89.83,174.06c0-1.28,0-2.61,0-3.84h0.72c0,0.16,0,.45,0,0.63h0a1.34,1.34,0,0,1,1.25-.74,1.36,1.36,0,0,1,1.43,1.56v2.38H92.5v-2.13c0-.68-0.19-1.17-0.87-1.17a1.11,1.11,0,0,0-1,1.26v2H89.83"/><path class="c" d="M96.35,170.75a1.36,1.36,0,0,0,0,2.71,1.35,1.35,0,0,0,0-2.71m2,3.12A1.92,1.92,0,0,1,96.24,176a2.81,2.81,0,0,1-1.88-.7l0.49-.59a2,2,0,0,0,1.4.62c1.1,0,1.47-.77,1.34-1.91a1.56,1.56,0,0,1-1.35.66,2,2,0,0,1,0-4,1.63,1.63,0,0,1,1.4.72v-0.62h0.74v3.64Z"/><path class="c" d="M102.22,172.53a1.12,1.12,0,0,0,1.77.81,1.64,1.64,0,0,0,.52-0.53l-1.36-1.43a1.24,1.24,0,0,0-.92,1.15m1.16-2a1.27,1.27,0,0,0,.94-1,0.71,0.71,0,0,0-.74-0.73,0.8,0.8,0,0,0-.58,1.31A3.35,3.35,0,0,0,103.38,170.57Zm1.68-1a1.71,1.71,0,0,1-1.23,1.51l1.14,1.17,0.72-1.22h0.89l-1.1,1.71,1.31,1.35h-1.06l-0.71-.75a2.06,2.06,0,0,1-1.74.86,1.61,1.61,0,0,1-1.86-1.63,1.83,1.83,0,0,1,1.29-1.66,1.9,1.9,0,0,1-.66-1.31,1.34,1.34,0,0,1,1.53-1.39A1.3,1.3,0,0,1,105.05,169.53Z"/><path class="c" d="M111.36,170.75a1.39,1.39,0,0,0,0,2.78,1.39,1.39,0,0,0,0-2.78m-0.14-.63a1.7,1.7,0,0,1,1.39.68v-2.86h0.76v6.12h-0.74a3.73,3.73,0,0,0,0-.61,1.6,1.6,0,0,1-1.39.71,1.84,1.84,0,0,1-1.94-2A1.86,1.86,0,0,1,111.22,170.12Z"/><path class="c" d="M114.7,174.06c0-1.28,0-2.61,0-3.84h0.72c0,0.16,0,.48,0,0.65h0a1.3,1.3,0,0,1,1.47-.72l0,0.7a1.1,1.1,0,0,0-1.43,1.19v2H114.7"/><path class="c" d="M117.89,170.23c0.41,1,.78,2,1.21,3l1.06-3H121L119.11,175a1.4,1.4,0,0,1-1.83,1l0.07-.67a0.79,0.79,0,0,0,.83-0.1,4.73,4.73,0,0,0,.51-1.12L117,170.23h0.85"/><path class="c" d="M122.1,168.35a0.5,0.5,0,0,1,.51.49,0.51,0.51,0,1,1-.51-0.49m0.38,5.72h-0.76v-3.84h0.76v3.84Z"/><path class="c" d="M123.81,174.06c0-1.28,0-2.61,0-3.84h0.72c0,0.16,0,.45,0,0.63h0a1.34,1.34,0,0,1,1.25-.74,1.36,1.36,0,0,1,1.43,1.56v2.38h-0.76v-2.13c0-.68-0.19-1.17-0.87-1.17a1.11,1.11,0,0,0-1,1.26v2h-0.76"/><path class="c" d="M130.33,170.75a1.36,1.36,0,0,0,0,2.71,1.35,1.35,0,0,0,0-2.71m2,3.12a1.92,1.92,0,0,1-2.12,2.14,2.81,2.81,0,0,1-1.88-.7l0.49-.59a2,2,0,0,0,1.4.62c1.1,0,1.47-.77,1.34-1.91a1.56,1.56,0,0,1-1.35.66,2,2,0,0,1,0-4,1.63,1.63,0,0,1,1.4.72v-0.62h0.74v3.64Z"/><rect class="a" x="468" y="162.5" width="72" height="54" rx="2.25" ry="2.25"/><line class="b" x1="468" y1="180.5" x2="540" y2="180.5"/><path class="b" d="M479.25,209.84a3.87,3.87,0,0,1-3.69,4.23,4.14,4.14,0,0,1-4-4.05v-0.09"/><path class="b" d="M472.95,210.47a2.33,2.33,0,0,1,2.34-2.39,2.5,2.5,0,0,1,2.66,2.21,2.27,2.27,0,0,1-2.29,2.39A2.55,2.55,0,0,1,472.95,210.47Z"/><polyline class="c" points="494.7 174.06 493.9 174.06 493.9 171.2 493.9 168.33 497.48 168.33 497.48 168.68 497.48 169.03 494.7 169.03 494.7 169.93 494.7 170.82 497.3 170.82 497.3 171.16 497.3 171.5 494.7 171.5 494.7 172.78 494.7 174.06"/><path class="c" d="M498.85,168.35a0.5,0.5,0,0,1,.51.49,0.51,0.51,0,1,1-.51-0.49m0.38,5.72h-0.76v-3.84h0.76v3.84Z"/><path class="c" d="M500.55,174.06c0-1.28,0-2.61,0-3.84h0.72c0,0.16,0,.48,0,0.65h0a1.3,1.3,0,0,1,1.47-.72l0,0.7a1.1,1.1,0,0,0-1.43,1.19v2h-0.76"/><path class="c" d="M503.88,168.35a0.5,0.5,0,0,1,.51.49,0.51,0.51,0,1,1-.51-0.49m0.38,5.72H503.5v-3.84h0.76v3.84Z"/><path class="c" d="M505.58,174.06c0-1.28,0-2.61,0-3.84h0.72c0,0.16,0,.45,0,0.63h0a1.34,1.34,0,0,1,1.25-.74,1.36,1.36,0,0,1,1.43,1.56v2.38h-0.76v-2.13c0-.68-0.19-1.17-0.87-1.17a1.11,1.11,0,0,0-1,1.26v2h-0.76"/><path class="c" d="M512.11,170.75a1.36,1.36,0,0,0,0,2.71,1.35,1.35,0,0,0,0-2.71m2,3.12A1.92,1.92,0,0,1,512,176a2.81,2.81,0,0,1-1.88-.7l0.49-.59a2,2,0,0,0,1.4.62c1.1,0,1.47-.77,1.34-1.91a1.56,1.56,0,0,1-1.35.66,2,2,0,0,1,0-4,1.63,1.63,0,0,1,1.4.72v-0.62h0.74v3.64Z"/><rect class="a" x="334.42" y="162.5" width="72" height="54" rx="2.25" ry="2.25"/><line class="b" x1="334.42" y1="180.5" x2="406.42" y2="180.5"/><path class="b" d="M345.67,209.84a3.87,3.87,0,0,1-3.69,4.23,4.14,4.14,0,0,1-4-4.05v-0.09"/><path class="b" d="M339.37,210.47a2.33,2.33,0,0,1,2.34-2.39,2.5,2.5,0,0,1,2.65,2.21,2.27,2.27,0,0,1-2.3,2.39A2.55,2.55,0,0,1,339.37,210.47Z"/><path class="c" d="M361.78,173.71a4.37,4.37,0,0,1-3.39.28,3,3,0,0,1,1.22-5.8,2.91,2.91,0,0,1,2.12.75l-0.56.58a2,2,0,0,0-1.56-.62,2.3,2.3,0,0,0,0,4.6,2.66,2.66,0,0,0,1.34-.28v-1.6h-1.27v-0.68h2.07v2.78"/><polyline class="c" points="363.89 174.06 363.13 174.06 363.13 171 363.13 167.94 363.89 167.94 363.89 171 363.89 174.06"/><path class="c" d="M366.5,173.56a1.09,1.09,0,0,0,1.11-1.33c-0.83,0-1.9,0-1.9.73a0.65,0.65,0,0,0,.79.6m-1.56-.58c0-1.24,1.4-1.26,2.67-1.3a0.83,0.83,0,0,0-.95-0.95,1.6,1.6,0,0,0-1.09.45l-0.4-.49a2.26,2.26,0,0,1,1.57-.58,1.42,1.42,0,0,1,1.6,1.51,23.92,23.92,0,0,0,.06,2.44h-0.69a2.56,2.56,0,0,1-.06-0.55h0a1.47,1.47,0,0,1-1.29.65A1.19,1.19,0,0,1,364.94,173Z"/><polyline class="c" points="372.35 170.85 370.16 173.43 372.44 173.43 372.44 173.75 372.44 174.06 369.22 174.06 369.22 173.75 369.22 173.44 371.39 170.85 369.33 170.85 369.33 170.54 369.33 170.23 372.35 170.23 372.35 170.54 372.35 170.85"/><path class="c" d="M373.74,168.35a0.5,0.5,0,0,1,.51.49,0.51,0.51,0,1,1-.51-0.49m0.38,5.72h-0.76v-3.84h0.76v3.84Z"/><path class="c" d="M375.45,174.06c0-1.28,0-2.61,0-3.84h0.72c0,0.16,0,.45,0,0.63h0a1.34,1.34,0,0,1,1.25-.74,1.36,1.36,0,0,1,1.43,1.56v2.38h-0.76v-2.13c0-.68-0.19-1.17-0.87-1.17a1.11,1.11,0,0,0-1,1.26v2h-0.76"/><path class="c" d="M382,170.75a1.36,1.36,0,0,0,0,2.71,1.35,1.35,0,0,0,0-2.71m2,3.12a1.92,1.92,0,0,1-2.12,2.14,2.81,2.81,0,0,1-1.88-.7l0.49-.59a2,2,0,0,0,1.4.62c1.1,0,1.47-.77,1.34-1.91a1.56,1.56,0,0,1-1.35.66,2,2,0,0,1,0-4,1.63,1.63,0,0,1,1.4.72v-0.62H384v3.64Z"/><rect class="a" x="200.85" y="162.5" width="72" height="54" rx="2.25" ry="2.25"/><line class="b" x1="200.85" y1="180.5" x2="272.85" y2="180.5"/><path class="b" d="M212.1,209.84a3.87,3.87,0,0,1-3.69,4.23,4.14,4.14,0,0,1-4-4.05v-0.09"/><path class="b" d="M205.8,210.47a2.33,2.33,0,0,1,2.34-2.39,2.5,2.5,0,0,1,2.65,2.21,2.27,2.27,0,0,1-2.3,2.39A2.55,2.55,0,0,1,205.8,210.47Z"/><polyline class="c" points="222.55 174.06 221.75 174.06 221.75 171.2 221.75 168.33 225.33 168.33 225.33 168.68 225.33 169.03 222.55 169.03 222.55 169.93 222.55 170.82 225.15 170.82 225.15 171.16 225.15 171.5 222.55 171.5 222.55 172.78 222.55 174.06"/><path class="c" d="M228.12,173.53a1.39,1.39,0,1,0-1.28-1.39,1.24,1.24,0,0,0,1.28,1.39m0-3.41a2,2,0,1,1-2.07,2A1.9,1.9,0,0,1,228.12,170.12Z"/><path class="c" d="M231.25,174.06c0-1.28,0-2.61,0-3.84h0.72c0,0.16,0,.48,0,0.65h0a1.3,1.3,0,0,1,1.47-.72l0,0.7A1.1,1.1,0,0,0,232,172v2h-0.76"/><path class="c" d="M234.93,170.86a1.34,1.34,0,0,1,1.22-.74,1.2,1.2,0,0,1,1.19.77,1.41,1.41,0,0,1,1.3-.77,1.36,1.36,0,0,1,1.43,1.56v2.38h-0.76v-2.13c0-.66-0.19-1.17-0.85-1.17-1.39,0-.87,2-1,3.3h-0.76v-2.28a0.83,0.83,0,0,0-.81-1,1.11,1.11,0,0,0-1,1.26v2h-0.76c0-1.28,0-2.61,0-3.84h0.72c0,0.16,0,.45,0,0.63h0"/><path class="c" d="M241.76,168.35a0.5,0.5,0,0,1,.51.49,0.51,0.51,0,1,1-.51-0.49m0.38,5.72h-0.76v-3.84h0.76v3.84Z"/><path class="c" d="M243.46,174.06c0-1.28,0-2.61,0-3.84h0.72c0,0.16,0,.45,0,0.63h0a1.34,1.34,0,0,1,1.25-.74,1.36,1.36,0,0,1,1.43,1.56v2.38h-0.76v-2.13c0-.68-0.19-1.17-0.87-1.17a1.11,1.11,0,0,0-1,1.26v2h-0.76"/><path class="c" d="M250,170.75a1.36,1.36,0,0,0,0,2.71,1.35,1.35,0,0,0,0-2.71m2,3.12a1.92,1.92,0,0,1-2.12,2.14,2.81,2.81,0,0,1-1.88-.7l0.49-.59a2,2,0,0,0,1.4.62c1.1,0,1.47-.77,1.34-1.91a1.56,1.56,0,0,1-1.35.66,2,2,0,0,1,0-4,1.63,1.63,0,0,1,1.4.72v-0.62H252v3.64Z"/><path class="c" d="M200,169.83l-6.48-5.66c-1-.9-1.87-0.68-1.87.58s-1.25,2.25-2.84,2.25H142.11c-1.59,0-2.84,1-2.84,2.25v4.5c0,1.26,1.25,2.25,2.84,2.25h46.64c1.59,0,2.84,1,2.84,2.25s0.85,1.49,1.87.58l6.48-5.66A2.2,2.2,0,0,0,200,169.83Zm-39.07,3.92H143.82v-4.5h17.06v4.5Zm26.16,0H170v-4.5H187v4.5Z"/><path class="c" d="M333.66,169.83l-6.49-5.66c-1-.9-1.87-0.68-1.87.58S324,167,322.45,167H275.76c-1.59,0-2.85,1-2.85,2.25v4.5c0,1.26,1.25,2.25,2.85,2.25h46.68c1.59,0,2.85,1,2.85,2.25s0.85,1.49,1.87.58l6.49-5.66A2.2,2.2,0,0,0,333.66,169.83Zm-39.11,3.92H277.47v-4.5h17.08v4.5Zm26.19,0H303.66v-4.5h17.08v4.5Z"/><path class="c" d="M467.26,169.83l-6.5-5.66c-1-.9-1.88-0.68-1.88.58S457.63,167,456,167H409.27c-1.6,0-2.85,1-2.85,2.25v4.5c0,1.26,1.25,2.25,2.85,2.25H456c1.6,0,2.85,1,2.85,2.25s0.85,1.49,1.88.58l6.5-5.66A2.2,2.2,0,0,0,467.26,169.83Zm-39.17,3.92H411v-4.5h17.11v4.5Zm26.23,0H437.21v-4.5h17.11v4.5Z"/><path class="d" d="M171,182.52c-0.54-1.12-1.44-1.12-2,0l-16,31.95a1.29,1.29,0,0,0,1.26,2h31.5a1.29,1.29,0,0,0,1.26-2Z"/><path class="b" d="M167.54,198.5h5m-2.52-7.2v7.2m-2.52-7.2h5"/><path class="c" d="M165.72,209.9c0-1,0-2,0-2.88l-1.81,2.88h1.83m0.76,0h0.83v0.67h-0.83v1.29h-0.76v-1.29h-2.64v-0.71l2.44-3.73h1v3.77Z"/><path class="c" d="M170,206a1.63,1.63,0,0,1,1.74,2.14,2.64,2.64,0,0,1-.85,1.22l-1.86,1.81h2.81v0.7h-3.74v-0.75l2.28-2.27a1.75,1.75,0,0,0,.63-1.22,0.94,0.94,0,0,0-1-1,1.08,1.08,0,0,0-1.08,1l-0.77-.13A1.76,1.76,0,0,1,170,206"/><path class="c" d="M174.88,209.18a1.09,1.09,0,1,0,1.12,1.09,1,1,0,0,0-1.12-1.09m0-2.54a0.94,0.94,0,1,0,0,1.87A0.94,0.94,0,1,0,174.88,206.63Zm1.72,0.9a1.36,1.36,0,0,1-.88,1.31,1.43,1.43,0,0,1,1.09,1.46,1.94,1.94,0,0,1-3.85,0,1.44,1.44,0,0,1,1.09-1.46h0a1.29,1.29,0,0,1-.88-1.28A1.73,1.73,0,0,1,176.6,207.53Z"/><path class="d" d="M304.63,182.52c-0.54-1.12-1.44-1.12-2,0l-16,31.95a1.29,1.29,0,0,0,1.26,2h31.5a1.29,1.29,0,0,0,1.26-2Z"/><path class="b" d="M301.12,198.5h5m-2.52-7.2v7.2m-2.52-7.2h5"/><path class="c" d="M299.3,209.9c0-1,0-2,0-2.88l-1.81,2.88h1.83m0.76,0h0.83v0.67h-0.83v1.29H299.3v-1.29h-2.64v-0.71l2.44-3.73h1v3.77Z"/><path class="c" d="M304.11,209.9c0-1,0-2,0-2.88l-1.81,2.88h1.83m0.76,0h0.83v0.67h-0.83v1.29h-0.76v-1.29h-2.64v-0.71l2.44-3.73h1v3.77Z"/><path class="c" d="M308.43,206a1.63,1.63,0,0,1,1.74,2.14,2.64,2.64,0,0,1-.85,1.22l-1.86,1.81h2.81v0.7h-3.74v-0.75l2.28-2.27a1.75,1.75,0,0,0,.63-1.22,0.94,0.94,0,0,0-1-1,1.08,1.08,0,0,0-1.08,1l-0.77-.13a1.76,1.76,0,0,1,1.85-1.52"/><path class="d" d="M438.2,182.52c-0.54-1.12-1.44-1.12-2,0l-16,31.95a1.29,1.29,0,0,0,1.26,2H453a1.29,1.29,0,0,0,1.26-2Z"/><path class="b" d="M434.69,198.5h5m-2.52-7.2v7.2m-2.52-7.2h5"/><path class="c" d="M432.37,206a1.63,1.63,0,0,1,1.74,2.14,2.64,2.64,0,0,1-.85,1.22l-1.86,1.81h2.81v0.7h-3.74v-0.75l2.28-2.27a1.75,1.75,0,0,0,.63-1.22,0.94,0.94,0,0,0-1-1,1.08,1.08,0,0,0-1.08,1l-0.77-.13a1.76,1.76,0,0,1,1.85-1.52"/><path class="c" d="M437.21,209.07a1.11,1.11,0,0,0,1.2-1.21,1.19,1.19,0,1,0-2.38,0,1.1,1.1,0,0,0,1.18,1.2m0-3.09a1.8,1.8,0,0,1,2,1.89,2.8,2.8,0,0,1-.55,1.63l-1.5,2.37h-0.93c0.5-.78,1.05-1.56,1.53-2.32a1.56,1.56,0,0,1-.72.15,1.67,1.67,0,0,1-1.79-1.8A1.8,1.8,0,0,1,437.22,206Z"/><path class="c" d="M442,208.92a1.11,1.11,0,0,0-1.2,1.21,1.19,1.19,0,1,0,2.37,0,1.09,1.09,0,0,0-1.17-1.2m0,3.09a1.8,1.8,0,0,1-2-1.89,2.73,2.73,0,0,1,.56-1.63l1.5-2.37H443l-1.54,2.31v0a1.45,1.45,0,0,1,.71-0.15,1.7,1.7,0,0,1,1.79,1.8A1.8,1.8,0,0,1,442,212Z"/><path class="d" d="M37.54,183.38c-0.59-1.08-1.49-1.08-2.07,0L19.54,214.52a1.24,1.24,0,0,0,1.21,2h31.5a1.24,1.24,0,0,0,1.22-2Z"/><path class="b" d="M34,198.95h5m-2.52-7v7m-2.52-7h5"/><path class="c" d="M32.16,210.26c0-1,0-2,0-2.88l-1.81,2.88h1.83m0.76,0h0.83v0.67H32.92v1.29H32.16v-1.29H29.52v-0.71L32,206.49h1v3.77Z"/><path class="c" d="M36.48,206.34a1.63,1.63,0,0,1,1.74,2.14,2.64,2.64,0,0,1-.85,1.22l-1.86,1.81h2.81v0.7H34.57v-0.75l2.28-2.27a1.75,1.75,0,0,0,.63-1.22,0.94,0.94,0,0,0-1-1,1.08,1.08,0,0,0-1.08,1l-0.77-.13a1.76,1.76,0,0,1,1.85-1.52"/><path class="c" d="M41.8,210.26c0-1,0-2,0-2.88L40,210.26H41.8m0.76,0h0.83v0.67H42.56v1.29H41.8v-1.29H39.16v-0.71l2.44-3.73h1v3.77Z"/><line class="b" x1="504" y1="162.5" x2="504" y2="60.66"/><polygon class="c" points="504 53.6 508.06 63.55 504 61.19 499.94 63.55 504 53.6"/><path class="c" d="M484.45,162.5h0Z"/><path class="a" d="M468,18a4.63,4.63,0,0,1,1.85-3.51L489.91,0.86c1-.68,1.85-0.27,1.85,1v11.7c0,1.26.81,1.67,1.85,1L513.67,0.86c1-.68,1.85-0.27,1.85,1v11.7c0,1.26.85,1.71,1.89,1l20.7-13.68c1-.72,1.89-0.27,1.89,1v49.5a2.23,2.23,0,0,1-2.25,2.25h-67.5A2.23,2.23,0,0,1,468,51.35V18Z"/><path class="c" d="M487.41,36.7a1.78,1.78,0,0,0,1.54-.76l0.64,0.44a2.57,2.57,0,0,1-2.19,1,2.87,2.87,0,0,1-2.79-1.8,3.44,3.44,0,0,1,0-2.45A3,3,0,0,1,488,31.44a2.23,2.23,0,0,1,1.47.83l-0.63.49a1.73,1.73,0,0,0-1.43-.67,2.1,2.1,0,0,0-2.18,2.3,2.06,2.06,0,0,0,2.15,2.31"/><path class="c" d="M493.76,33.43c0,1.28,0,2.61,0,3.84h-0.72c0-.16,0-0.49,0-0.63a1.41,1.41,0,0,1-1.26.74,1.36,1.36,0,0,1-1.43-1.56V33.43h0.76v2.12c0,0.68.19,1.18,0.87,1.18a1.11,1.11,0,0,0,1-1.26v-2h0.76"/><path class="c" d="M494.94,34.95c-0.5-1.26.95-2,2.14-1.47a1.3,1.3,0,0,1,.6.47l-0.53.45a1,1,0,0,0-.89-0.48,0.58,0.58,0,0,0-.71.5c0,0.59.92,0.51,1.39,0.73a1.08,1.08,0,0,1,.78,1c0.06,1.56-2.45,1.51-3.08.55l0.54-.46a1.24,1.24,0,0,0,1,.53A0.62,0.62,0,0,0,497,36.2c0-.73-1.27-0.51-1.76-0.95a0.84,0.84,0,0,1-.26-0.3"/><path class="c" d="M499.9,37.33a1,1,0,0,1-1.12-1.2V34H498V33.43h0.74v-1.1h0.75v1.1h1V34h-1v2c0,0.44.13,0.64,0.54,0.65a1.09,1.09,0,0,0,.45-0.1l0,0.62a1.94,1.94,0,0,1-.65.11"/><path class="c" d="M503.16,36.73a1.39,1.39,0,1,0-1.28-1.39,1.24,1.24,0,0,0,1.28,1.39m0-3.41a2,2,0,1,1-2.07,2A1.9,1.9,0,0,1,503.16,33.32Z"/><path class="c" d="M507,34.06a1.34,1.34,0,0,1,1.22-.74,1.2,1.2,0,0,1,1.19.77,1.41,1.41,0,0,1,1.3-.77,1.36,1.36,0,0,1,1.43,1.56v2.38h-0.76V35.13c0-.66-0.19-1.17-0.85-1.17-1.39,0-.87,2-1,3.3h-0.76V35a0.83,0.83,0,0,0-.81-1,1.11,1.11,0,0,0-1,1.26v2h-0.76c0-1.28,0-2.61,0-3.84H507c0,0.16,0,.45,0,0.63h0"/><path class="c" d="M515.2,33.32c1.3,0,1.9.87,1.84,2.25h-3a1.2,1.2,0,0,0,1.25,1.17,1.28,1.28,0,0,0,1.12-.58l0.53,0.43a1.92,1.92,0,0,1-1.65.79,2,2,0,0,1,0-4M516.28,35a1.07,1.07,0,0,0-1.54-1,1.12,1.12,0,0,0-.75,1h2.28Z"/><path class="c" d="M518.11,37.26c0-1.28,0-2.61,0-3.84h0.72c0,0.16,0,.48,0,0.65h0a1.3,1.3,0,0,1,1.47-.72l0,0.7a1.1,1.1,0,0,0-1.43,1.19v2h-0.76"/><path class="c" d="M520.9,34.95c-0.5-1.26.95-2,2.14-1.47a1.3,1.3,0,0,1,.6.47l-0.53.45a1,1,0,0,0-.89-0.48,0.58,0.58,0,0,0-.71.5c0,0.59.92,0.51,1.39,0.73a1.08,1.08,0,0,1,.78,1c0.06,1.56-2.45,1.51-3.08.55l0.54-.46a1.24,1.24,0,0,0,1,.53,0.62,0.62,0,0,0,.76-0.56c0-.73-1.27-0.51-1.76-0.95a0.84,0.84,0,0,1-.26-0.3"/><path class="b" d="M468,27.31l-85.45-1.77c-1.53,0-1.64.28-.11,0.67L393.12,29c1.48,0.35,1.42.67-.17,0.63l-74-1.63"/><polygon class="c" points="311.88 27.85 321.91 24.01 319.46 28.02 321.73 32.14 311.88 27.85"/><path class="c" d="M353.91,35c0.59,1.46,1.14,3,1.75,4.39l1.67-4.4h1.24v5.72h-0.8c0-1.59,0-3.22,0-4.78l-1.88,4.79h-0.51c-0.64-1.59-1.26-3.21-1.93-4.77v4.78h-0.78V35h1.24"/><path class="c" d="M361.75,40.12a1.39,1.39,0,1,0-1.28-1.38,1.23,1.23,0,0,0,1.28,1.38m0-3.4a2,2,0,1,1-2.05,2A1.89,1.89,0,0,1,361.73,36.72Z"/><path class="c" d="M364.87,40.64c0-1.28,0-2.6,0-3.83h0.72c0,0.16,0,.45,0,0.63h0a1.34,1.34,0,0,1,1.24-.74,1.36,1.36,0,0,1,1.44,1.55v2.37h-0.76V38.5c0-.68-0.2-1.17-0.88-1.17a1.11,1.11,0,0,0-1,1.26v2h-0.76"/><path class="c" d="M370.79,40.67a1,1,0,0,1-1.12-1.19V37.41h-0.73V36.79h0.73v-1.1h0.75v1.1h1V37.4h-1v2c0,0.44.13,0.64,0.54,0.64a1.09,1.09,0,0,0,.44-0.1l0,0.62a1.93,1.93,0,0,1-.65.11"/><path class="c" d="M374,37.31a1.12,1.12,0,0,0-1,1.26v2h-0.76V34.5H373c0,0.94,0,1.94,0,2.86a1.35,1.35,0,0,1,1.21-.69,1.37,1.37,0,0,1,1.44,1.55v2.37H374.9V38.48c0-.67-0.2-1.17-0.87-1.17"/><polyline class="c" points="377.72 40.58 376.96 40.58 376.95 37.53 376.93 34.48 377.69 34.47 377.7 37.53 377.72 40.58"/><path class="c" d="M379.29,36.74c0.41,1,.78,2,1.22,3l1-3h0.81l-1.84,4.74a1.39,1.39,0,0,1-1.82,1l0.07-.67a0.79,0.79,0,0,0,.82-0.1,4.72,4.72,0,0,0,.5-1.12l-1.66-3.82h0.85"/><path class="c" d="M386.7,35c-0.83,0-.66.93-0.67,1.72h0.89v0.62H386v3.21h-0.76V37.34h-0.76V36.72h0.76v-0.8a1.42,1.42,0,0,1,1.9-1.53l-0.09.65A1.34,1.34,0,0,0,386.7,35"/><path class="c" d="M389.44,40a1.39,1.39,0,1,0-1.28-1.38A1.23,1.23,0,0,0,389.44,40m0-3.4a2,2,0,1,1-2.05,2A1.89,1.89,0,0,1,389.43,36.6Z"/><path class="c" d="M392.56,40.51c0-1.28,0-2.6,0-3.83h0.72c0,0.16,0,.48,0,0.65h0a1.3,1.3,0,0,1,1.47-.73l0,0.7a1.09,1.09,0,0,0-1.42,1.19v2h-0.76"/><path class="c" d="M397.05,36.56c1.29,0,1.9.86,1.84,2.24h-3A1.2,1.2,0,0,0,397.11,40a1.28,1.28,0,0,0,1.11-.59l0.53,0.43a1.91,1.91,0,0,1-1.64.79,2,2,0,0,1-.06-4m1.08,1.68a1.06,1.06,0,0,0-1.54-1,1.11,1.11,0,0,0-.74,1h2.28Z"/><path class="c" d="M399.71,38.57a1.87,1.87,0,0,1,2-2,1.82,1.82,0,0,1,1.44.62l-0.55.45a1,1,0,0,0-.88-0.43,1.39,1.39,0,0,0,0,2.76,1.09,1.09,0,0,0,.92-0.42L403.21,40a1.77,1.77,0,0,1-1.43.6,1.9,1.9,0,0,1-2.07-2"/><path class="c" d="M405.23,40a1.08,1.08,0,0,0,1.1-1.33c-0.83,0-1.89,0-1.89.74a0.65,0.65,0,0,0,.79.59m-1.56-.57c0-1.24,1.39-1.27,2.66-1.3a0.82,0.82,0,0,0-.95-0.94,1.59,1.59,0,0,0-1.09.45l-0.41-.48a2.26,2.26,0,0,1,1.56-.58,1.42,1.42,0,0,1,1.61,1.5,23.84,23.84,0,0,0,.07,2.43h-0.69a2.55,2.55,0,0,1-.07-0.55h0a1.47,1.47,0,0,1-1.28.65A1.19,1.19,0,0,1,403.67,39.38Z"/><path class="c" d="M408.19,38.14c-0.51-1.25.94-2,2.13-1.47a1.3,1.3,0,0,1,.6.47l-0.52.45a1,1,0,0,0-.89-0.47,0.58,0.58,0,0,0-.71.5c0,0.59.91,0.5,1.38,0.72a1.08,1.08,0,0,1,.78,1c0.06,1.56-2.43,1.52-3.07.56l0.54-.46a1.24,1.24,0,0,0,1,.53,0.62,0.62,0,0,0,.76-0.56c0-.73-1.27-0.5-1.76-0.94a0.84,0.84,0,0,1-.26-0.3"/><path class="c" d="M413.14,40.49A1,1,0,0,1,412,39.3V37.22h-0.73V36.6H412V35.5h0.75v1.1h1v0.62h-1v2c0,0.44.13,0.64,0.54,0.64a1.09,1.09,0,0,0,.44-0.1l0,0.62a1.93,1.93,0,0,1-.65.11"/><line class="b" x1="270.14" y1="54.5" x2="270.32" y2="88.44"/><polygon class="c" points="270.36 95.5 266.24 85.57 270.32 87.91 274.37 85.53 270.36 95.5"/><polygon class="c" points="269.98 54.5 269.98 54.5 270.52 54.5 269.98 54.5"/><rect class="a" x="234.25" y="95.5" width="72" height="22" rx="2.25" ry="2.25"/><path class="c" d="M239.67,102.83c0.43,1.51.83,3.07,1.28,4.57l1.34-4.57h0.88c0.45,1.51.87,3.07,1.35,4.57l1.26-4.57h0.85L245,108.56h-0.83c-0.47-1.53-.92-3.09-1.41-4.61l-1.39,4.61h-0.83l-1.68-5.73h0.87"/><path class="c" d="M248.82,104.62c1.3,0,1.9.87,1.84,2.25h-3a1.2,1.2,0,0,0,1.25,1.17,1.28,1.28,0,0,0,1.12-.58l0.53,0.43a1.92,1.92,0,0,1-1.65.79,2,2,0,0,1,0-4m1.08,1.68a1.07,1.07,0,0,0-1.54-1,1.12,1.12,0,0,0-.75,1h2.28Z"/><path class="c" d="M253.46,104.62c1.3,0,1.9.87,1.84,2.25h-3a1.2,1.2,0,0,0,1.25,1.17,1.28,1.28,0,0,0,1.12-.58l0.53,0.43a1.92,1.92,0,0,1-1.65.79,2,2,0,0,1,0-4m1.08,1.68a1.07,1.07,0,0,0-1.54-1,1.12,1.12,0,0,0-.75,1h2.28Z"/><polyline class="c" points="257.15 106.39 257.18 106.39 258.79 104.73 259.81 104.73 258.01 106.47 259.96 108.56 258.91 108.56 257.18 106.57 257.15 106.57 257.15 107.57 257.15 108.56 256.39 108.56 256.39 105.5 256.39 102.44 257.15 102.44 257.15 104.42 257.15 106.39"/><polyline class="c" points="261.42 108.56 260.66 108.56 260.66 105.5 260.66 102.44 261.42 102.44 261.42 105.5 261.42 108.56"/><path class="c" d="M263,104.73c0.41,1,.78,2,1.21,3l1.06-3h0.81l-1.86,4.75a1.4,1.4,0,0,1-1.83,1l0.07-.67a0.79,0.79,0,0,0,.83-0.1,4.73,4.73,0,0,0,.51-1.12l-1.64-3.84H263"/><path class="c" d="M268.7,106.25c-0.5-1.26.95-2,2.14-1.47a1.3,1.3,0,0,1,.6.47l-0.53.45a1,1,0,0,0-.89-0.48,0.58,0.58,0,0,0-.71.5c0,0.59.92,0.51,1.39,0.73a1.08,1.08,0,0,1,.78,1c0.06,1.56-2.45,1.51-3.08.55l0.54-.46a1.24,1.24,0,0,0,1,.53,0.62,0.62,0,0,0,.76-0.56c0-.73-1.27-0.51-1.76-0.95a0.84,0.84,0,0,1-.26-0.3"/><path class="c" d="M272.18,106.65a1.88,1.88,0,0,1,2-2,1.82,1.82,0,0,1,1.44.63l-0.55.45a1.05,1.05,0,0,0-.88-0.44,1.39,1.39,0,0,0,0,2.77,1.1,1.1,0,0,0,.92-0.42l0.51,0.46a1.77,1.77,0,0,1-1.43.6,1.9,1.9,0,0,1-2.07-2"/><path class="c" d="M278.25,105.27a1.12,1.12,0,0,0-1,1.26v2h-0.76v-6.12h0.76c0,0.95,0,1.94,0,2.87a1.35,1.35,0,0,1,1.21-.69,1.37,1.37,0,0,1,1.43,1.56v2.38h-0.76v-2.12c0-.67-0.19-1.17-0.87-1.17"/><path class="c" d="M282.9,104.62c1.3,0,1.9.87,1.84,2.25h-3a1.2,1.2,0,0,0,1.25,1.17,1.28,1.28,0,0,0,1.12-.58l0.53,0.43a1.92,1.92,0,0,1-1.65.79,2,2,0,0,1,0-4m1.08,1.68a1.07,1.07,0,0,0-1.54-1,1.12,1.12,0,0,0-.75,1H284Z"/><path class="c" d="M287.61,105.25a1.39,1.39,0,0,0,0,2.78,1.39,1.39,0,0,0,0-2.78m-0.14-.63a1.7,1.7,0,0,1,1.39.68v-2.86h0.76v6.12h-0.74a3.73,3.73,0,0,0,0-.61,1.6,1.6,0,0,1-1.39.71,1.84,1.84,0,0,1-1.94-2A1.86,1.86,0,0,1,287.47,104.62Z"/><path class="c" d="M294.34,104.73c0,1.28,0,2.61,0,3.84h-0.72c0-.16,0-0.49,0-0.63a1.41,1.41,0,0,1-1.26.74,1.36,1.36,0,0,1-1.43-1.56v-2.38h0.76v2.12c0,0.68.19,1.18,0.87,1.18a1.11,1.11,0,0,0,1-1.26v-2h0.76"/><polyline class="c" points="296.44 108.56 295.68 108.56 295.68 105.5 295.68 102.44 296.44 102.44 296.44 105.5 296.44 108.56"/><path class="c" d="M299.5,104.62c1.3,0,1.9.87,1.84,2.25h-3a1.2,1.2,0,0,0,1.25,1.17,1.28,1.28,0,0,0,1.12-.58l0.53,0.43a1.92,1.92,0,0,1-1.65.79,2,2,0,0,1,0-4m1.08,1.68a1.07,1.07,0,0,0-1.54-1,1.12,1.12,0,0,0-.75,1h2.28Z"/><line class="b" x1="243.06" y1="117.5" x2="109.99" y2="160.34"/><polygon class="c" points="103.27 162.5 111.5 155.58 110.49 160.18 113.99 163.32 103.27 162.5"/><line class="b" x1="265.46" y1="117.5" x2="239.7" y2="155.93"/><polygon class="c" points="235.76 161.8 237.93 151.27 239.99 155.5 244.68 155.8 235.76 161.8"/><line class="b" x1="278.42" y1="117.5" x2="364.08" y2="159.16"/><polygon class="c" points="370.43 162.25 359.71 161.56 363.61 158.93 363.26 154.25 370.43 162.25"/><line class="b" x1="291.38" y1="117.5" x2="497.11" y2="160.8"/><polygon class="c" points="504.01 162.25 493.44 164.18 496.59 160.69 495.12 156.22 504.01 162.25"/><path class="d" d="M472.86,94.32h-2.61a1.68,1.68,0,0,0-1.71,2.21l1.35,5.31a10,10,0,0,1,0,4.32l-1.35,5.31a1.68,1.68,0,0,0,1.71,2.21h0.36a5.32,5.32,0,0,0,3.69-1.76l0.68-.81a5.56,5.56,0,0,1,3.69-1.71h19.71a1.36,1.36,0,0,1,1.35,2.07l-7.79,17.46a1.34,1.34,0,0,0,1.3,2.07h5.13a6,6,0,0,0,3.78-1.66l16.33-18.27a6,6,0,0,1,3.78-1.67h14.85a10.49,10.49,0,0,0,4.19-1.08l5.71-3.24a1.12,1.12,0,0,0,0-2.16l-5.71-3.24a10.49,10.49,0,0,0-4.19-1.08H522.27a6,6,0,0,1-3.78-1.67L502.15,78.66A6,6,0,0,0,498.37,77h-5.13a1.34,1.34,0,0,0-1.3,2.07l7.79,17.46a1.36,1.36,0,0,1-1.35,2.07H478.66A5.56,5.56,0,0,1,475,96.89Z"/><rect class="a" x="540" y="227.45" width="78.3" height="59.69" rx="2.25" ry="2.25"/><path class="b" d="M0.5,270.5V259.25A2.24,2.24,0,0,1,2.77,257H65a2.24,2.24,0,0,1,2.27,2.25v9a2.27,2.27,0,0,0,2.27,2.25H137a2.27,2.27,0,0,0,2.27-2.25v-9a2.24,2.24,0,0,1,2.27-2.25h57a2.27,2.27,0,0,1,2.27,2.25v9a2.24,2.24,0,0,0,2.27,2.25h67.46a2.27,2.27,0,0,0,2.27-2.25v-9a2.24,2.24,0,0,1,2.27-2.25h57a2.24,2.24,0,0,1,2.27,2.25v9a2.27,2.27,0,0,0,2.27,2.25h67.46a2.27,2.27,0,0,0,2.27-2.25v-9a2.24,2.24,0,0,1,2.27-2.25h57a2.24,2.24,0,0,1,2.27,2.25v9a2.24,2.24,0,0,0,2.27,2.25h67.46a2.24,2.24,0,0,0,2.27-2.25v-9a2.24,2.24,0,0,1,2.27-2.25h76"/><polyline class="c" points="549.59 240.24 548.78 240.24 548.78 237.72 548.78 235.21 546.95 235.21 546.95 234.86 546.95 234.5 551.42 234.5 551.42 234.86 551.42 235.21 549.59 235.21 549.59 237.72 549.59 240.24"/><path class="c" d="M553.18,239.7a1.39,1.39,0,1,0-1.28-1.39,1.24,1.24,0,0,0,1.28,1.39m0-3.41a2,2,0,1,1-2.07,2A1.9,1.9,0,0,1,553.18,236.29Z"/><path class="c" d="M557.53,240.3a1,1,0,0,1-1.12-1.2V237h-0.74V236.4h0.74v-1.1h0.75v1.1h1V237h-1v2c0,0.44.13,0.64,0.54,0.65a1.09,1.09,0,0,0,.45-0.1l0,0.62a1.94,1.94,0,0,1-.65.11"/><path class="c" d="M560.25,239.74a1.09,1.09,0,0,0,1.11-1.33c-0.83,0-1.9,0-1.9.73a0.65,0.65,0,0,0,.79.6m-1.56-.58c0-1.24,1.4-1.26,2.67-1.3a0.83,0.83,0,0,0-.95-0.95,1.6,1.6,0,0,0-1.09.45l-0.41-.49a2.26,2.26,0,0,1,1.57-.58,1.42,1.42,0,0,1,1.6,1.51,23.91,23.91,0,0,0,.06,2.44h-0.69a2.56,2.56,0,0,1-.06-0.55h0a1.47,1.47,0,0,1-1.29.65A1.19,1.19,0,0,1,558.69,239.15Z"/><polyline class="c" points="564.14 240.24 563.38 240.24 563.38 237.18 563.38 234.12 564.14 234.12 564.14 237.18 564.14 240.24"/><path class="c" d="M569.26,240.24h-0.83l-1.56-3.84h0.84c0.38,1,.74,2,1.14,3l1.13-3h0.81"/><path class="c" d="M572.82,239.74a1.09,1.09,0,0,0,1.11-1.33c-0.83,0-1.9,0-1.9.73a0.65,0.65,0,0,0,.79.6m-1.56-.58c0-1.24,1.4-1.26,2.67-1.3a0.83,0.83,0,0,0-.95-0.95,1.6,1.6,0,0,0-1.09.45l-0.41-.49a2.26,2.26,0,0,1,1.57-.58,1.42,1.42,0,0,1,1.6,1.51,23.91,23.91,0,0,0,.06,2.44H574a2.56,2.56,0,0,1-.06-0.55h0a1.47,1.47,0,0,1-1.29.65A1.19,1.19,0,0,1,571.26,239.15Z"/><polyline class="c" points="576.71 240.24 575.95 240.24 575.95 237.18 575.95 234.12 576.71 234.12 576.71 237.18 576.71 240.24"/><path class="c" d="M581.43,236.4c0,1.28,0,2.61,0,3.84h-0.72c0-.16,0-0.49,0-0.63a1.41,1.41,0,0,1-1.26.74,1.36,1.36,0,0,1-1.43-1.56V236.4h0.76v2.12c0,0.68.19,1.18,0.87,1.18a1.11,1.11,0,0,0,1-1.26v-2h0.76"/><path class="c" d="M584.48,236.29c1.3,0,1.9.87,1.84,2.25h-3a1.2,1.2,0,0,0,1.25,1.17,1.28,1.28,0,0,0,1.12-.58l0.53,0.43a1.92,1.92,0,0,1-1.65.79,2,2,0,0,1,0-4m1.08,1.68a1.07,1.07,0,0,0-1.54-1,1.12,1.12,0,0,0-.75,1h2.28Z"/><path class="c" d="M593.59,238.12v0.66h-4.26v-0.66h4.26m0-1.34v0.66h-4.26v-0.66h4.26Z"/><path class="c" d="M548.85,244.6a1.63,1.63,0,0,1,1.74,2.14,2.64,2.64,0,0,1-.85,1.22l-1.86,1.81h2.81v0.7h-3.74v-0.75l2.28-2.27a1.75,1.75,0,0,0,.63-1.22,0.94,0.94,0,0,0-1-1,1.08,1.08,0,0,0-1.08,1l-0.77-.13a1.76,1.76,0,0,1,1.85-1.52"/><path class="c" d="M552.49,249.47a0.53,0.53,0,0,1,.54.53,0.54,0.54,0,0,1-1.09,0,0.54,0.54,0,0,1,.54-0.53m0-2.88a0.53,0.53,0,1,1-.54.53A0.55,0.55,0,0,1,552.49,246.59Z"/><path class="c" d="M556.69,245.49a0.85,0.85,0,0,0-1.15,0c-0.68.71-.72,2.57-0.36,3.66a1,1,0,0,0,.94.81c1.22,0,1.21-1.83,1.1-3.13a2.3,2.3,0,0,0-.53-1.34m-2.41,3.3c-0.32-1.88,0-4.2,1.85-4.2,1.53,0,2,1.43,2,3a3.17,3.17,0,0,1-1.08,2.78,1.79,1.79,0,0,1-1.76,0A2.3,2.3,0,0,1,554.28,248.8Z"/><polyline class="c" points="561.6 250.48 560.81 250.48 560.81 248.09 560.81 245.7 559.73 246.61 559.27 246.07 560.89 244.75 561.6 244.75 561.6 247.61 561.6 250.48"/><polyline class="c" points="549.59 268.61 548.78 268.61 548.78 266.1 548.78 263.58 546.95 263.58 546.95 263.23 546.95 262.88 551.42 262.88 551.42 263.23 551.42 263.58 549.59 263.58 549.59 266.1 549.59 268.61"/><path class="c" d="M553.18,268.08a1.39,1.39,0,1,0-1.28-1.39,1.24,1.24,0,0,0,1.28,1.39m0-3.41a2,2,0,1,1-2.07,2A1.9,1.9,0,0,1,553.18,264.67Z"/><path class="c" d="M557.53,268.68a1,1,0,0,1-1.12-1.2V265.4h-0.74v-0.62h0.74v-1.1h0.75v1.1h1v0.62h-1v2c0,0.44.13,0.64,0.54,0.65a1.09,1.09,0,0,0,.45-0.1l0,0.62a1.94,1.94,0,0,1-.65.11"/><path class="c" d="M560.25,268.11a1.09,1.09,0,0,0,1.11-1.33c-0.83,0-1.9,0-1.9.73a0.65,0.65,0,0,0,.79.6m-1.56-.58c0-1.24,1.4-1.26,2.67-1.3a0.83,0.83,0,0,0-.95-0.95,1.6,1.6,0,0,0-1.09.45l-0.41-.49a2.26,2.26,0,0,1,1.57-.58,1.42,1.42,0,0,1,1.6,1.51,23.91,23.91,0,0,0,.06,2.44h-0.69a2.56,2.56,0,0,1-.06-0.55h0a1.47,1.47,0,0,1-1.29.65A1.19,1.19,0,0,1,558.69,267.53Z"/><polyline class="c" points="564.14 268.61 563.38 268.61 563.38 265.55 563.38 262.49 564.14 262.49 564.14 265.55 564.14 268.61"/><path class="c" d="M568.84,262.88c1,1.52,2,3.08,3,4.58v-4.58h0.8v5.73h-1c-1-1.56-2-3.14-3-4.68v4.68h-0.8v-5.73h1"/><path class="c" d="M575.82,268.08a1.39,1.39,0,1,0-1.28-1.39,1.24,1.24,0,0,0,1.28,1.39m0-3.41a2,2,0,1,1-2.07,2A1.9,1.9,0,0,1,575.82,264.67Z"/><path class="c" d="M578.95,268.61c0-1.28,0-2.61,0-3.84h0.72c0,0.16,0,.45,0,0.63h0a1.34,1.34,0,0,1,1.25-.74,1.36,1.36,0,0,1,1.43,1.56v2.38h-0.76v-2.13c0-.68-0.19-1.17-0.87-1.17a1.11,1.11,0,0,0-1,1.26v2h-0.76"/><path class="c" d="M585.47,268.61h-0.83l-1.56-3.84h0.84c0.38,1,.74,2,1.14,3l1.13-3H587"/><path class="c" d="M589,268.11a1.09,1.09,0,0,0,1.11-1.33c-0.83,0-1.9,0-1.9.73a0.65,0.65,0,0,0,.79.6m-1.56-.58c0-1.24,1.4-1.26,2.67-1.3a0.83,0.83,0,0,0-.95-0.95,1.6,1.6,0,0,0-1.09.45l-0.41-.49a2.26,2.26,0,0,1,1.57-.58,1.42,1.42,0,0,1,1.6,1.51,23.91,23.91,0,0,0,.06,2.44h-0.69a2.56,2.56,0,0,1-.06-0.55h0a1.47,1.47,0,0,1-1.29.65A1.19,1.19,0,0,1,587.46,267.53Z"/><polyline class="c" points="592.91 268.61 592.15 268.61 592.15 265.55 592.15 262.49 592.91 262.49 592.91 265.55 592.91 268.61"/><path class="c" d="M597.63,264.77c0,1.28,0,2.61,0,3.84h-0.72c0-.16,0-0.49,0-0.63a1.41,1.41,0,0,1-1.26.74,1.36,1.36,0,0,1-1.43-1.56v-2.38H595v2.12c0,0.68.19,1.18,0.87,1.18a1.11,1.11,0,0,0,1-1.26v-2h0.76"/><path class="c" d="M600.69,264.67c1.3,0,1.9.87,1.84,2.25h-3a1.2,1.2,0,0,0,1.25,1.17,1.28,1.28,0,0,0,1.12-.58l0.53,0.43a1.92,1.92,0,0,1-1.65.79,2,2,0,0,1,0-4m1.08,1.68a1.07,1.07,0,0,0-1.54-1,1.12,1.12,0,0,0-.75,1h2.28Z"/><path class="c" d="M609.77,266.5v0.66h-4.26V266.5h4.26m0-1.34v0.66h-4.26v-0.66h4.26Z"/><polyline class="c" points="549.28 280.37 548.49 280.37 548.49 277.98 548.49 275.59 547.41 276.5 546.95 275.95 548.57 274.63 549.28 274.63 549.28 277.5 549.28 280.37"/><path class="c" d="M554,275.38a0.85,0.85,0,0,0-1.15,0c-0.68.71-.72,2.57-0.36,3.66a1,1,0,0,0,.94.81c1.22,0,1.21-1.83,1.1-3.13a2.3,2.3,0,0,0-.53-1.34m-2.41,3.3c-0.32-1.88,0-4.2,1.85-4.2,1.53,0,2,1.43,2,3a3.17,3.17,0,0,1-1.08,2.78,1.79,1.79,0,0,1-1.76,0A2.3,2.3,0,0,1,551.6,278.68Z"/><path class="c" d="M557.06,279.35a0.53,0.53,0,0,1,.54.53,0.54,0.54,0,0,1-1.09,0,0.54,0.54,0,0,1,.54-0.53m0-2.88a0.53,0.53,0,1,1-.54.53A0.55,0.55,0,0,1,557.06,276.48Z"/><path class="c" d="M561.26,275.38a0.85,0.85,0,0,0-1.15,0c-0.68.71-.72,2.57-0.36,3.66a1,1,0,0,0,.94.81c1.22,0,1.21-1.83,1.1-3.13a2.3,2.3,0,0,0-.53-1.34m-2.41,3.3c-0.32-1.88,0-4.2,1.85-4.2,1.53,0,2,1.43,2,3a3.17,3.17,0,0,1-1.08,2.78,1.79,1.79,0,0,1-1.76,0A2.3,2.3,0,0,1,558.84,278.68Z"/><path class="c" d="M565.51,277.43a1.11,1.11,0,0,0-1.2,1.21,1.19,1.19,0,1,0,2.37,0,1.09,1.09,0,0,0-1.17-1.2m0,3.09a1.8,1.8,0,0,1-2-1.89,2.73,2.73,0,0,1,.56-1.63l1.5-2.37h0.93L565,276.94v0a1.45,1.45,0,0,1,.71-0.15,1.7,1.7,0,0,1,1.79,1.8A1.8,1.8,0,0,1,565.5,280.51Z"/><path class="c" d="M29,252.24c0-.87-0.77-1.09-1.68-1.06v-0.65c0.85,0,1.53-.15,1.53-1a0.92,0.92,0,0,0-1-.95,1,1,0,0,0-1,.7l-0.71-.25A1.81,1.81,0,0,1,27.86,248a1.53,1.53,0,0,1,1.77,1.56,1.34,1.34,0,0,1-1,1.32,1.36,1.36,0,0,1,1.17,1.4A1.7,1.7,0,0,1,27.86,254a1.89,1.89,0,0,1-2-1.26l0.73-.24a1.21,1.21,0,0,0,1.21.84A1,1,0,0,0,29,252.24"/><path class="c" d="M31.62,252.84a0.53,0.53,0,0,1,.54.53,0.54,0.54,0,0,1-1.09,0,0.54,0.54,0,0,1,.54-0.53m0-2.88a0.53,0.53,0,1,1-.54.53A0.55,0.55,0,0,1,31.62,250Z"/><path class="c" d="M35.72,251.89c0-1,0-2,0-2.88l-1.81,2.88h1.83m0.76,0h0.83v0.67H36.49v1.29H35.72v-1.29H33.08v-0.71l2.44-3.73h1v3.77Z"/><path class="c" d="M39.72,250.85a2.89,2.89,0,0,0-1.27.32l0.08-3h3.09v0.7H39.26l0,1.51c1.4-.36,2.69.3,2.66,1.7a2,2,0,0,1-3.83.83l0.71-.28a1.18,1.18,0,0,0,1.12.77,1.13,1.13,0,0,0,1.2-1.23,1.19,1.19,0,0,0-1.34-1.26"/><path class="c" d="M98.43,265.34a0.53,0.53,0,0,1,.54.53,0.54,0.54,0,0,1-1.09,0,0.54,0.54,0,0,1,.54-0.53m0-2.88a0.53,0.53,0,1,1-.54.53A0.55,0.55,0,0,1,98.43,262.47Z"/><path class="c" d="M101.71,263.35a2.89,2.89,0,0,0-1.27.32l0.08-3h3.09v0.7h-2.37l0,1.51c1.4-.36,2.69.3,2.66,1.7a2,2,0,0,1-3.83.83l0.71-.28a1.18,1.18,0,0,0,1.12.77,1.13,1.13,0,0,0,1.2-1.23,1.19,1.19,0,0,0-1.34-1.26"/><path class="c" d="M107.87,264.74c0-.87-0.77-1.09-1.68-1.06V263c0.85,0,1.53-.15,1.53-1a0.92,0.92,0,0,0-1-.95,1,1,0,0,0-1,.7l-0.71-.25a1.81,1.81,0,0,1,1.75-1.11A1.53,1.53,0,0,1,108.5,262a1.34,1.34,0,0,1-1,1.32,1.36,1.36,0,0,1,1.17,1.4,1.7,1.7,0,0,1-1.92,1.75,1.89,1.89,0,0,1-2-1.26l0.73-.24a1.21,1.21,0,0,0,1.21.84,1,1,0,0,0,1.15-1.09"/><path class="c" d="M164.06,248a1.63,1.63,0,0,1,1.74,2.14,2.64,2.64,0,0,1-.85,1.22l-1.86,1.81h2.81v0.7h-3.74V253.1l2.28-2.27a1.75,1.75,0,0,0,.63-1.22,0.94,0.94,0,0,0-1-1,1.08,1.08,0,0,0-1.08,1l-0.77-.13a1.76,1.76,0,0,1,1.85-1.52"/><path class="c" d="M167.71,252.84a0.53,0.53,0,0,1,.54.53,0.54,0.54,0,0,1-1.09,0,0.54,0.54,0,0,1,.54-0.53m0-2.88a0.53,0.53,0,1,1-.54.53A0.55,0.55,0,0,1,167.71,250Z"/><polyline class="c" points="171.99 253.85 171.21 253.85 171.21 251.46 171.21 249.07 170.12 249.98 169.66 249.44 171.29 248.12 171.99 248.12 171.99 250.99 171.99 253.85"/><path class="c" d="M175.81,250.85a2.89,2.89,0,0,0-1.27.32l0.08-3h3.09v0.7h-2.37l0,1.51c1.4-.36,2.69.3,2.66,1.7a2,2,0,0,1-3.83.83l0.71-.28a1.18,1.18,0,0,0,1.12.77,1.13,1.13,0,0,0,1.2-1.23,1.19,1.19,0,0,0-1.34-1.26"/><path class="c" d="M231.86,265.35a0.53,0.53,0,0,1,.54.53,0.54,0.54,0,0,1-1.09,0,0.54,0.54,0,0,1,.54-0.53m0-2.88a0.53,0.53,0,1,1-.54.53A0.55,0.55,0,0,1,231.86,262.47Z"/><path class="c" d="M236.06,261.37a0.85,0.85,0,0,0-1.15,0c-0.68.71-.72,2.57-0.36,3.66a1,1,0,0,0,.94.81c1.21,0,1.21-1.83,1.1-3.13a2.3,2.3,0,0,0-.53-1.34m-2.41,3.3c-0.32-1.88,0-4.2,1.85-4.2,1.53,0,2,1.43,2,3a3.17,3.17,0,0,1-1.08,2.78,1.79,1.79,0,0,1-1.76,0A2.3,2.3,0,0,1,233.64,264.67Z"/><path class="c" d="M240.79,264.4c0-1,0-2,0-2.88L239,264.4h1.83m0.76,0h0.83v0.67h-0.83v1.29h-0.76v-1.29h-2.64v-0.71l2.44-3.73h1v3.77Z"/><path class="c" d="M297.58,248a1.63,1.63,0,0,1,1.74,2.14,2.64,2.64,0,0,1-.85,1.22l-1.86,1.81h2.81v0.7h-3.74V253.1l2.28-2.27a1.75,1.75,0,0,0,.63-1.22,0.94,0.94,0,0,0-1-1,1.08,1.08,0,0,0-1.08,1l-0.77-.13a1.76,1.76,0,0,1,1.85-1.52"/><path class="c" d="M301.23,252.84a0.53,0.53,0,0,1,.54.53,0.54,0.54,0,0,1-1.09,0,0.54,0.54,0,0,1,.54-0.53m0-2.88a0.53,0.53,0,1,1-.54.53A0.55,0.55,0,0,1,301.23,250Z"/><path class="c" d="M304.51,250.85a2.89,2.89,0,0,0-1.27.32l0.08-3h3.09v0.7H304l0,1.51c1.4-.36,2.69.3,2.66,1.7a2,2,0,0,1-3.83.83l0.71-.28a1.18,1.18,0,0,0,1.12.77,1.13,1.13,0,0,0,1.2-1.23,1.19,1.19,0,0,0-1.34-1.26"/><path class="c" d="M309.67,251.16a1.09,1.09,0,1,0,1.12,1.09,1,1,0,0,0-1.12-1.09m0-2.54a0.94,0.94,0,1,0,0,1.87A0.94,0.94,0,1,0,309.67,248.62Zm1.72,0.9a1.36,1.36,0,0,1-.88,1.31,1.43,1.43,0,0,1,1.09,1.46,1.94,1.94,0,0,1-3.85,0,1.44,1.44,0,0,1,1.09-1.46h0a1.29,1.29,0,0,1-.88-1.28A1.73,1.73,0,0,1,311.39,249.52Z"/><path class="c" d="M365.58,265.35a0.53,0.53,0,0,1,.54.53,0.54,0.54,0,0,1-1.09,0,0.54,0.54,0,0,1,.54-0.53m0-2.88a0.53,0.53,0,1,1-.54.53A0.55,0.55,0,0,1,365.58,262.47Z"/><path class="c" d="M369.77,261.37a0.85,0.85,0,0,0-1.15,0c-0.68.71-.72,2.57-0.36,3.66a1,1,0,0,0,.94.81c1.21,0,1.21-1.83,1.1-3.13a2.3,2.3,0,0,0-.53-1.34m-2.41,3.3c-0.32-1.88,0-4.2,1.85-4.2,1.53,0,2,1.43,2,3a3.17,3.17,0,0,1-1.08,2.78,1.79,1.79,0,0,1-1.76,0A2.3,2.3,0,0,1,367.36,264.67Z"/><polyline class="c" points="375.78 261.34 373.48 266.36 372.58 266.36 374.97 261.32 372.13 261.32 372.13 260.97 372.13 260.62 375.78 260.62 375.78 260.98 375.78 261.34"/><polyline class="c" points="431.7 253.85 430.91 253.85 430.91 251.46 430.91 249.07 429.82 249.98 429.36 249.44 430.99 248.12 431.7 248.12 431.7 250.99 431.7 253.85"/><path class="c" d="M434.66,252.84a0.53,0.53,0,0,1,.54.53,0.54,0.54,0,0,1-1.09,0,0.54,0.54,0,0,1,.54-0.53m0-2.88a0.53,0.53,0,1,1-.54.53A0.55,0.55,0,0,1,434.66,250Z"/><path class="c" d="M438.86,248.86a0.85,0.85,0,0,0-1.15,0c-0.68.71-.72,2.57-0.36,3.66a1,1,0,0,0,.94.81c1.22,0,1.21-1.83,1.1-3.13a2.3,2.3,0,0,0-.53-1.34m-2.41,3.3c-0.32-1.88,0-4.2,1.85-4.2,1.53,0,2,1.43,2,3a3.17,3.17,0,0,1-1.08,2.78,1.79,1.79,0,0,1-1.76,0A2.3,2.3,0,0,1,436.44,252.17Z"/><path class="c" d="M443.11,251.16a1.09,1.09,0,1,0,1.12,1.09,1,1,0,0,0-1.12-1.09m0-2.54a0.94,0.94,0,1,0,0,1.87A0.94,0.94,0,1,0,443.11,248.62Zm1.72,0.9a1.36,1.36,0,0,1-.88,1.31,1.43,1.43,0,0,1,1.09,1.46,1.94,1.94,0,0,1-3.85,0,1.44,1.44,0,0,1,1.09-1.46h0a1.29,1.29,0,0,1-.88-1.28A1.73,1.73,0,0,1,444.83,249.52Z"/><path class="c" d="M499.17,265.34a0.53,0.53,0,0,1,.54.53,0.54,0.54,0,0,1-1.09,0,0.54,0.54,0,0,1,.54-0.53m0-2.88a0.53,0.53,0,1,1-.54.53A0.55,0.55,0,0,1,499.17,262.47Z"/><path class="c" d="M502.45,263.35a2.89,2.89,0,0,0-1.27.32l0.08-3h3.09v0.7H502l0,1.51c1.4-.36,2.69.3,2.66,1.7a2,2,0,0,1-3.83.83l0.71-.28a1.18,1.18,0,0,0,1.12.77,1.13,1.13,0,0,0,1.2-1.23,1.19,1.19,0,0,0-1.34-1.26"/><polyline class="c" points="509.37 261.33 507.07 266.35 506.18 266.35 508.56 261.31 505.72 261.31 505.72 260.97 505.72 260.62 509.37 260.62 509.37 260.98 509.37 261.33"/><path class="e" d="M421.57,158.84c7.11-1.89,7.11-1.89,14.22,0C435.79,170.23,421.57,170.23,421.57,158.84Z"/><path class="e" d="M440.51,158.84c7.11-1.89,7.11-1.89,14.22,0C454.73,170.23,440.51,170.23,440.51,158.84Z"/><path class="c" d="M435.79,158.84c2.38-.95,2.38-0.95,4.72,0v0.94c-2.34-.94-2.34-0.94-4.72,0v-0.94Z"/><path class="b" d="M435.79,158.84c2.38-.95,2.38-0.95,4.72,0v0.94c-2.34-.94-2.34-0.94-4.72,0v-0.94Z"/><path class="c" d="M421.57,159.34a1,1,0,0,0-.4-0.77l-7.79-5.49a2.17,2.17,0,0,0-2.43.09l-0.85.63a1.34,1.34,0,0,0-.36.81,0.21,0.21,0,0,0,.36.18l0.85-.68a2.17,2.17,0,0,1,2.43,0l7.79,5.45C421.39,159.7,421.57,159.61,421.57,159.34Z"/><path class="b" d="M421.57,159.34a1,1,0,0,0-.4-0.77l-7.79-5.49a2.17,2.17,0,0,0-2.43.09l-0.85.63a1.34,1.34,0,0,0-.36.81,0.21,0.21,0,0,0,.36.18l0.85-.68a2.17,2.17,0,0,1,2.43,0l7.79,5.45C421.39,159.7,421.57,159.61,421.57,159.34Z"/><path class="b" d="M454.73,158.84c0-.15-8.3-6.62-9.49-6.62s-1.47.09-2.63,1.5-0.08,1.26.33,1,0.93-1.5,2.1-1.5,8.53,5.3,8.53,5.3A3.41,3.41,0,0,0,454.73,158.84Z"/><path class="c" d="M490.61,106.21h-3.7v-0.74l2.26-2.24a3.53,3.53,0,0,0,.44-0.55,1.17,1.17,0,0,0,.18-0.65,1,1,0,0,0-.08-0.4,1,1,0,0,0-.22-0.31,0.94,0.94,0,0,0-.32-0.2,1.12,1.12,0,0,0-.39-0.07,1,1,0,0,0-.71.28,1.25,1.25,0,0,0-.35.71l-0.76-.13a1.7,1.7,0,0,1,.2-0.6,1.74,1.74,0,0,1,1-.8,2,2,0,0,1,.68-0.11,2.2,2.2,0,0,1,.68.1,1.77,1.77,0,0,1,.57.3,1.46,1.46,0,0,1,.4.5,1.57,1.57,0,0,1,.15.7,1.7,1.7,0,0,1-.07.5,2,2,0,0,1-.2.44,2.58,2.58,0,0,1-.29.4l-0.35.37-1.84,1.79h2.78v0.7Z"/><path class="c" d="M492.77,104.22l-1.38-1.8h0.93l0.93,1.3,0.94-1.3h0.88l-1.37,1.79,1.53,2h-0.94l-1.06-1.48-1.07,1.48h-0.9Z"/><path class="c" d="M499.13,102.53a1.31,1.31,0,0,1,.75-0.21,1.37,1.37,0,0,1,.69.18,1.18,1.18,0,0,1,.48.58,1.36,1.36,0,0,1,.54-0.56,1.6,1.6,0,0,1,1.38-.07,1.28,1.28,0,0,1,.44.33,1.34,1.34,0,0,1,.26.49,2.06,2.06,0,0,1,.08.6v2.35H503v-2.1a2.27,2.27,0,0,0,0-.44,1.11,1.11,0,0,0-.14-0.37,0.73,0.73,0,0,0-.26-0.26,0.78,0.78,0,0,0-.41-0.1,0.85,0.85,0,0,0-.44.11,0.91,0.91,0,0,0-.3.28,1.2,1.2,0,0,0-.17.39,1.9,1.9,0,0,0-.05.44v2h-0.75V104a2,2,0,0,0,0-.41,0.83,0.83,0,0,0-.14-0.32A0.68,0.68,0,0,0,500,103a0.83,0.83,0,0,0-.38-0.08,0.86,0.86,0,0,0-.69.34,1.4,1.4,0,0,0-.28.91v2h-0.75v-3q0-.15,0-0.39c0-.16,0-0.3,0-0.42h0.71q0,0.14,0,.32t0,0.3h0A1.29,1.29,0,0,1,499.13,102.53Z"/><path class="c" d="M508.87,104.31a2.06,2.06,0,0,1-.16.81,1.93,1.93,0,0,1-.43.64,2,2,0,0,1-.65.42,2.28,2.28,0,0,1-1.62,0,1.89,1.89,0,0,1-.65-0.42,2,2,0,0,1-.43-0.64,2.06,2.06,0,0,1-.16-0.81,2,2,0,0,1,.16-0.8,1.9,1.9,0,0,1,1.08-1,2.28,2.28,0,0,1,1.62,0,2,2,0,0,1,.65.41,1.9,1.9,0,0,1,.43.63A2,2,0,0,1,508.87,104.31Zm-0.78,0a1.61,1.61,0,0,0-.08-0.52,1.32,1.32,0,0,0-.25-0.43,1.18,1.18,0,0,0-.4-0.3,1.37,1.37,0,0,0-1.08,0,1.17,1.17,0,0,0-.4.3,1.32,1.32,0,0,0-.25.43,1.64,1.64,0,0,0,0,1,1.36,1.36,0,0,0,.25.44,1.14,1.14,0,0,0,.4.3,1.37,1.37,0,0,0,1.08,0,1.15,1.15,0,0,0,.4-0.3,1.36,1.36,0,0,0,.25-0.44A1.61,1.61,0,0,0,508.08,104.31Z"/><path class="c" d="M510.59,102.42q0,0.14,0,.32t0,0.3h0a1.11,1.11,0,0,1,.2-0.28,1.42,1.42,0,0,1,.28-0.23,1.4,1.4,0,0,1,.35-0.16,1.41,1.41,0,0,1,.4-0.06,1.48,1.48,0,0,1,.63.12,1.29,1.29,0,0,1,.44.33,1.35,1.35,0,0,1,.26.49,2.09,2.09,0,0,1,.08.6v2.35h-0.75v-2.1a2.64,2.64,0,0,0,0-.44,1.08,1.08,0,0,0-.13-0.37,0.72,0.72,0,0,0-.26-0.26,0.86,0.86,0,0,0-.43-0.1,0.91,0.91,0,0,0-.73.34,1.37,1.37,0,0,0-.28.91v2h-0.75v-3q0-.15,0-0.39c0-.16,0-0.3,0-0.42h0.71Z"/><path class="c" d="M516.42,103h-1v2a0.75,0.75,0,0,0,.13.49,0.51,0.51,0,0,0,.41.15l0.22,0,0.22-.07,0,0.62-0.3.08-0.34,0A1.08,1.08,0,0,1,515,106a1.24,1.24,0,0,1-.28-0.89V103h-0.73v-0.62h0.73v-1.09h0.74v1.09h1V103Z"/><path class="c" d="M518,103a1.17,1.17,0,0,1,.46-0.48,1.38,1.38,0,0,1,.74-0.2,1.48,1.48,0,0,1,.63.12,1.27,1.27,0,0,1,.44.33,1.34,1.34,0,0,1,.26.49,2.09,2.09,0,0,1,.08.6v2.35h-0.75v-2.1a2.55,2.55,0,0,0,0-.44,1,1,0,0,0-.13-0.37,0.72,0.72,0,0,0-.26-0.26A0.84,0.84,0,0,0,519,103a0.92,0.92,0,0,0-.74.34,1.36,1.36,0,0,0-.29.91v2h-0.75v-6H518V103h0Z"/><path class="c" d="M522.64,106.21h-0.75v-6h0.75v6Z"/><path class="c" d="M525.39,105.4h0l1-3h0.8l-1.84,4.69a3.16,3.16,0,0,1-.21.43,1.32,1.32,0,0,1-.26.32,1.1,1.1,0,0,1-.36.2,1.46,1.46,0,0,1-.48.07h-0.24l-0.25,0,0.07-.66a1.19,1.19,0,0,0,.38.06,0.56,0.56,0,0,0,.44-0.16,1.62,1.62,0,0,0,.26-0.47l0.24-.63-1.62-3.79h0.84Z"/></svg>